<svg width="908" height="472" viewBox="0 0 908 472" fill="none" xmlns="http://www.w3.org/2000/svg">
<g filter="url(#filter0_d_3669_211182)">
<rect x="92" y="95" width="708" height="272" rx="18" fill="white"/>
<g clip-path="url(#clip0_3669_211182)">
<path d="M532.325 241.288C532.325 244.327 529.872 246.78 526.833 246.78H519.84H519.511H498.019C498.019 246.78 498.11 245.517 500.234 244.126C502.376 242.735 504.023 241.636 504.939 239.952C504.939 239.952 506.934 242.314 510.815 242.314C514.11 242.314 518.321 242.314 519.492 242.314C519.694 242.314 519.822 242.314 519.822 242.314H526.522C527.236 242.314 527.822 241.728 527.822 241.014V239.146C527.822 239.146 527.822 237.426 527.822 235.211C527.822 233.618 527.822 231.751 527.822 230.121C527.822 226.24 525.46 224.245 525.46 224.245C527.163 223.33 528.243 221.682 529.634 219.54C531.025 217.398 532.289 217.325 532.289 217.325V235.211V235.467H539.135C539.135 233.801 539.135 231.842 539.135 230.121C539.135 226.24 536.774 224.245 536.774 224.245C538.476 223.33 539.556 221.682 540.948 219.54C542.339 217.398 543.602 217.325 543.602 217.325V235.485H550.668C550.668 233.819 550.668 231.86 550.668 230.14C550.668 226.259 548.307 224.263 548.307 224.263C550.009 223.348 551.089 221.7 552.481 219.558C553.872 217.416 555.135 217.343 555.135 217.343V235.503H559.803C559.803 233.178 559.803 215.476 559.803 211.851C559.803 207.97 557.442 205.975 557.442 205.975C559.144 205.06 560.224 203.412 561.616 201.27C563.007 199.128 564.27 199.055 564.27 199.055V235.503H570.86C569.744 233.874 569.085 231.897 569.085 229.773C569.085 224.153 573.661 219.613 579.3 219.613C583.84 219.613 587.666 222.542 589.002 226.606L587.611 227.449C586.256 226.222 583.126 223.915 579.281 224.007C576.078 224.08 573.478 226.588 573.478 229.773C573.478 232.739 575.73 235.174 578.622 235.503H591.821L589.46 240.172H532.197V241.288H532.325ZM538.037 242.314C536.774 242.314 535.749 243.339 535.749 244.602C535.749 245.865 536.774 246.89 538.037 246.89C539.3 246.89 540.325 245.865 540.325 244.602C540.325 243.339 539.3 242.314 538.037 242.314ZM516.38 233.233C517.643 233.233 518.669 232.208 518.669 230.945C518.669 229.682 517.643 228.657 516.38 228.657C515.117 228.657 514.092 229.682 514.092 230.945C514.092 232.208 515.117 233.233 516.38 233.233ZM541.369 244.584C541.369 245.847 542.394 246.872 543.657 246.872C544.92 246.872 545.945 245.847 545.945 244.584C545.945 243.32 544.92 242.295 543.657 242.295C542.394 242.295 541.369 243.32 541.369 244.584ZM549.552 242.314C548.288 242.314 547.263 243.339 547.263 244.602C547.263 245.865 548.288 246.89 549.552 246.89C550.815 246.89 551.84 245.865 551.84 244.602C551.84 243.339 550.796 242.314 549.552 242.314ZM557.423 244.584C557.423 243.32 556.398 242.295 555.135 242.295C553.872 242.295 552.847 243.32 552.847 244.584C552.847 245.847 553.872 246.872 555.135 246.872C556.417 246.872 557.423 245.847 557.423 244.584ZM498.056 263H499.483V252.144H498.056V263ZM507.923 252.144H506.495V263H512.774V261.719H507.941V252.144H507.923ZM520.811 252.144H519.383V263H525.662V261.719H520.829V252.144H520.811ZM532.307 263H533.735V252.144H532.307V263ZM545.854 255.348C545.396 256.062 544.993 256.703 544.664 257.27C544.316 256.666 543.95 256.043 543.565 255.439L541.424 252.162H539.684L543.858 258.423V263.018H545.286V258.423L549.607 252.162H547.941L545.854 255.348ZM556.709 258.021H562.201V256.757H556.709V253.444H562.604V252.162H555.263V263.018H562.86V261.737H556.709V258.021ZM570.988 258.021H576.48V256.757H570.988V253.444H576.883V252.162H569.542V263.018H577.139V261.737H570.988V258.021ZM590.888 252.144V260.657L585.194 252.144H583.73V263H585.103V254.469L590.796 263H592.261V252.144H590.888ZM303.989 251.43V243.998H306.588C308.382 243.998 309.774 243.906 310.726 243.723C311.421 243.577 312.117 243.265 312.794 242.789C313.472 242.314 314.039 241.673 314.46 240.849C314.9 240.025 315.119 239 315.119 237.792C315.119 236.217 314.735 234.936 313.984 233.947C313.215 232.959 312.282 232.318 311.147 232.025C310.414 231.824 308.84 231.732 306.405 231.732H299.998V251.449H303.989V251.43ZM305.911 235.046C307.339 235.046 308.309 235.101 308.767 235.174C309.408 235.284 309.939 235.577 310.378 236.053C310.799 236.529 311 237.114 311 237.828C311 238.414 310.854 238.927 310.543 239.366C310.231 239.805 309.829 240.135 309.298 240.336C308.767 240.538 307.723 240.648 306.149 240.648H303.989V235.046H305.911ZM321.16 248.263C321.783 249.398 322.68 250.277 323.87 250.863C325.06 251.449 326.304 251.741 327.623 251.741C329.746 251.741 331.504 251.027 332.895 249.618C334.286 248.19 334.982 246.396 334.982 244.236C334.982 242.094 334.286 240.318 332.913 238.908C331.54 237.499 329.764 236.803 327.604 236.803C326.213 236.803 324.932 237.114 323.797 237.737C322.662 238.359 321.783 239.256 321.16 240.428C320.538 241.6 320.227 242.808 320.227 244.071C320.227 245.737 320.538 247.128 321.16 248.263ZM325.115 241.032C325.792 240.281 326.616 239.897 327.604 239.897C328.593 239.897 329.417 240.263 330.094 241.032C330.771 241.783 331.101 242.863 331.101 244.254C331.101 245.682 330.771 246.78 330.094 247.531C329.417 248.281 328.593 248.666 327.604 248.666C326.616 248.666 325.792 248.281 325.115 247.531C324.437 246.78 324.108 245.7 324.108 244.272C324.089 242.881 324.437 241.801 325.115 241.032ZM347.009 251.43L349.426 242.24L351.879 251.43H355.503L360.098 237.151H356.382L353.654 246.506L351.274 237.151H347.632L345.178 246.506L342.506 237.151H338.826L343.348 251.43H347.009ZM372.217 248.446C371.814 248.776 371.32 248.922 370.716 248.922C369.837 248.922 369.123 248.611 368.537 247.989C367.952 247.366 367.659 246.487 367.622 245.371H377.087C377.141 242.478 376.556 240.318 375.329 238.927C374.103 237.517 372.418 236.822 370.295 236.822C368.409 236.822 366.835 237.499 365.608 238.835C364.364 240.172 363.759 242.021 363.759 244.4C363.759 246.378 364.235 248.025 365.169 249.325C366.359 250.954 368.208 251.76 370.679 251.76C372.254 251.76 373.553 251.394 374.597 250.68C375.64 249.966 376.409 248.904 376.885 247.531L373.114 246.908C372.931 247.604 372.62 248.135 372.217 248.446ZM367.695 243.064C367.695 242.039 367.952 241.215 368.483 240.611C369.013 240.007 369.709 239.714 370.533 239.714C371.302 239.714 371.961 240.007 372.492 240.574C373.023 241.142 373.315 241.984 373.334 243.064H367.695ZM386.551 247.018C386.551 244.584 386.661 242.991 386.862 242.222C387.064 241.453 387.356 240.941 387.723 240.648C388.089 240.355 388.546 240.208 389.059 240.208C389.608 240.208 390.194 240.41 390.835 240.831L392.006 237.535C391.201 237.06 390.377 236.822 389.517 236.822C388.913 236.822 388.363 236.968 387.887 237.279C387.411 237.59 386.862 238.213 386.258 239.183V237.151H382.743V251.43H386.533V247.018H386.551ZM403.759 248.446C403.356 248.776 402.862 248.922 402.258 248.922C401.379 248.922 400.665 248.611 400.079 247.989C399.494 247.366 399.201 246.487 399.164 245.371H408.629C408.684 242.478 408.098 240.318 406.871 238.927C405.645 237.517 403.96 236.822 401.837 236.822C399.951 236.822 398.377 237.499 397.15 238.835C395.906 240.172 395.301 242.021 395.301 244.4C395.301 246.378 395.777 248.025 396.711 249.325C397.901 250.954 399.75 251.76 402.221 251.76C403.796 251.76 405.095 251.394 406.139 250.68C407.182 249.966 407.951 248.904 408.427 247.531L404.656 246.908C404.473 247.604 404.162 248.135 403.759 248.446ZM399.237 243.064C399.237 242.039 399.494 241.215 400.025 240.611C400.555 240.007 401.251 239.714 402.075 239.714C402.844 239.714 403.503 240.007 404.034 240.574C404.565 241.142 404.857 241.984 404.876 243.064H399.237ZM427.576 231.714H423.805V238.817C422.633 237.481 421.26 236.822 419.667 236.822C417.928 236.822 416.482 237.444 415.347 238.707C414.212 239.97 413.645 241.801 413.645 244.236C413.645 246.597 414.23 248.446 415.402 249.764C416.574 251.082 417.983 251.741 419.612 251.741C420.418 251.741 421.223 251.54 422.011 251.137C422.798 250.735 423.493 250.13 424.079 249.325V251.43H427.594V231.714H427.576ZM418.404 240.794C419.008 240.08 419.759 239.732 420.656 239.732C421.571 239.732 422.34 240.098 422.926 240.812C423.512 241.526 423.805 242.716 423.805 244.364C423.805 245.828 423.493 246.945 422.889 247.677C422.285 248.41 421.535 248.794 420.674 248.794C419.576 248.794 418.734 248.3 418.111 247.311C417.69 246.634 417.489 245.535 417.489 243.998C417.489 242.57 417.8 241.508 418.404 240.794ZM447.823 251.43V249.343C448.39 250.149 449.086 250.753 449.873 251.156C450.66 251.558 451.466 251.76 452.289 251.76C453.955 251.76 455.365 251.101 456.518 249.783C457.672 248.465 458.257 246.579 458.257 244.144C458.257 241.783 457.69 239.97 456.555 238.707C455.42 237.444 453.974 236.822 452.235 236.822C450.642 236.822 449.251 237.481 448.097 238.817V231.714H444.308V251.43H447.823ZM448.958 240.776C449.562 240.08 450.312 239.714 451.209 239.714C452.125 239.714 452.894 240.08 453.479 240.794C454.065 241.508 454.358 242.698 454.358 244.327C454.358 245.865 454.065 246.982 453.479 247.696C452.894 248.41 452.18 248.757 451.356 248.757C450.276 248.757 449.397 248.263 448.756 247.256C448.299 246.542 448.061 245.444 448.061 243.979C448.061 242.551 448.354 241.49 448.958 240.776ZM467.703 251.467C467.484 252.272 467.154 252.913 466.733 253.444C466.312 253.957 465.653 254.213 464.774 254.213C464.298 254.213 463.768 254.158 463.182 254.048L463.511 257.014C464.207 257.16 464.921 257.233 465.653 257.233C466.367 257.233 467.008 257.16 467.575 257.014C468.143 256.867 468.619 256.648 469.022 256.373C469.406 256.098 469.754 255.751 470.065 255.311C470.358 254.872 470.687 254.231 471.017 253.407L471.914 250.918L476.948 237.169H473.031L469.699 247.311L466.276 237.169H462.248L467.703 251.467Z" fill="white"/>
<path d="M532.325 241.288C532.325 244.327 529.872 246.78 526.833 246.78H519.84H519.511H498.019C498.019 246.78 498.11 245.517 500.234 244.126C502.376 242.735 504.023 241.636 504.939 239.952C504.939 239.952 506.934 242.314 510.815 242.314C514.11 242.314 518.321 242.314 519.492 242.314C519.694 242.314 519.822 242.314 519.822 242.314H526.522C527.236 242.314 527.822 241.728 527.822 241.014V239.146C527.822 239.146 527.822 237.426 527.822 235.211C527.822 233.618 527.822 231.751 527.822 230.121C527.822 226.24 525.46 224.245 525.46 224.245C527.163 223.33 528.243 221.682 529.634 219.54C531.025 217.398 532.289 217.325 532.289 217.325V235.211V235.467H539.135C539.135 233.801 539.135 231.842 539.135 230.121C539.135 226.24 536.774 224.245 536.774 224.245C538.476 223.33 539.556 221.682 540.948 219.54C542.339 217.398 543.602 217.325 543.602 217.325V235.485H550.668C550.668 233.819 550.668 231.86 550.668 230.14C550.668 226.259 548.307 224.263 548.307 224.263C550.009 223.348 551.089 221.7 552.481 219.558C553.872 217.416 555.135 217.343 555.135 217.343V235.503H559.803C559.803 233.178 559.803 215.476 559.803 211.851C559.803 207.97 557.442 205.975 557.442 205.975C559.144 205.06 560.224 203.412 561.616 201.27C563.007 199.128 564.27 199.055 564.27 199.055V235.503H570.86C569.744 233.874 569.085 231.897 569.085 229.773C569.085 224.153 573.661 219.613 579.3 219.613C583.84 219.613 587.666 222.542 589.002 226.606L587.611 227.449C586.256 226.222 583.126 223.915 579.281 224.007C576.078 224.08 573.478 226.588 573.478 229.773C573.478 232.739 575.73 235.174 578.622 235.503H591.821L589.46 240.172H532.197V241.288H532.325ZM538.037 242.314C536.774 242.314 535.749 243.339 535.749 244.602C535.749 245.865 536.774 246.89 538.037 246.89C539.3 246.89 540.325 245.865 540.325 244.602C540.325 243.339 539.3 242.314 538.037 242.314ZM516.38 233.233C517.643 233.233 518.669 232.208 518.669 230.945C518.669 229.682 517.643 228.657 516.38 228.657C515.117 228.657 514.092 229.682 514.092 230.945C514.092 232.208 515.117 233.233 516.38 233.233ZM541.369 244.584C541.369 245.847 542.394 246.872 543.657 246.872C544.92 246.872 545.945 245.847 545.945 244.584C545.945 243.32 544.92 242.295 543.657 242.295C542.394 242.295 541.369 243.32 541.369 244.584ZM549.552 242.314C548.288 242.314 547.263 243.339 547.263 244.602C547.263 245.865 548.288 246.89 549.552 246.89C550.815 246.89 551.84 245.865 551.84 244.602C551.84 243.339 550.796 242.314 549.552 242.314ZM557.423 244.584C557.423 243.32 556.398 242.295 555.135 242.295C553.872 242.295 552.847 243.32 552.847 244.584C552.847 245.847 553.872 246.872 555.135 246.872C556.417 246.872 557.423 245.847 557.423 244.584ZM498.056 263H499.483V252.144H498.056V263ZM507.923 252.144H506.495V263H512.774V261.719H507.941V252.144H507.923ZM520.811 252.144H519.383V263H525.662V261.719H520.829V252.144H520.811ZM532.307 263H533.735V252.144H532.307V263ZM545.854 255.348C545.396 256.062 544.993 256.703 544.664 257.27C544.316 256.666 543.95 256.043 543.565 255.439L541.424 252.162H539.684L543.858 258.423V263.018H545.286V258.423L549.607 252.162H547.941L545.854 255.348ZM556.709 258.021H562.201V256.757H556.709V253.444H562.604V252.162H555.263V263.018H562.86V261.737H556.709V258.021ZM570.988 258.021H576.48V256.757H570.988V253.444H576.883V252.162H569.542V263.018H577.139V261.737H570.988V258.021ZM590.888 252.144V260.657L585.194 252.144H583.73V263H585.103V254.469L590.796 263H592.261V252.144H590.888ZM303.989 251.43V243.998H306.588C308.382 243.998 309.774 243.906 310.726 243.723C311.421 243.577 312.117 243.265 312.794 242.789C313.472 242.314 314.039 241.673 314.46 240.849C314.9 240.025 315.119 239 315.119 237.792C315.119 236.217 314.735 234.936 313.984 233.947C313.215 232.959 312.282 232.318 311.147 232.025C310.414 231.824 308.84 231.732 306.405 231.732H299.998V251.449H303.989V251.43ZM305.911 235.046C307.339 235.046 308.309 235.101 308.767 235.174C309.408 235.284 309.939 235.577 310.378 236.053C310.799 236.529 311 237.114 311 237.828C311 238.414 310.854 238.927 310.543 239.366C310.231 239.805 309.829 240.135 309.298 240.336C308.767 240.538 307.723 240.648 306.149 240.648H303.989V235.046H305.911ZM321.16 248.263C321.783 249.398 322.68 250.277 323.87 250.863C325.06 251.449 326.304 251.741 327.623 251.741C329.746 251.741 331.504 251.027 332.895 249.618C334.286 248.19 334.982 246.396 334.982 244.236C334.982 242.094 334.286 240.318 332.913 238.908C331.54 237.499 329.764 236.803 327.604 236.803C326.213 236.803 324.932 237.114 323.797 237.737C322.662 238.359 321.783 239.256 321.16 240.428C320.538 241.6 320.227 242.808 320.227 244.071C320.227 245.737 320.538 247.128 321.16 248.263ZM325.115 241.032C325.792 240.281 326.616 239.897 327.604 239.897C328.593 239.897 329.417 240.263 330.094 241.032C330.771 241.783 331.101 242.863 331.101 244.254C331.101 245.682 330.771 246.78 330.094 247.531C329.417 248.281 328.593 248.666 327.604 248.666C326.616 248.666 325.792 248.281 325.115 247.531C324.437 246.78 324.108 245.7 324.108 244.272C324.089 242.881 324.437 241.801 325.115 241.032ZM347.009 251.43L349.426 242.24L351.879 251.43H355.503L360.098 237.151H356.382L353.654 246.506L351.274 237.151H347.632L345.178 246.506L342.506 237.151H338.826L343.348 251.43H347.009ZM372.217 248.446C371.814 248.776 371.32 248.922 370.716 248.922C369.837 248.922 369.123 248.611 368.537 247.989C367.952 247.366 367.659 246.487 367.622 245.371H377.087C377.141 242.478 376.556 240.318 375.329 238.927C374.103 237.517 372.418 236.822 370.295 236.822C368.409 236.822 366.835 237.499 365.608 238.835C364.364 240.172 363.759 242.021 363.759 244.4C363.759 246.378 364.235 248.025 365.169 249.325C366.359 250.954 368.208 251.76 370.679 251.76C372.254 251.76 373.553 251.394 374.597 250.68C375.64 249.966 376.409 248.904 376.885 247.531L373.114 246.908C372.931 247.604 372.62 248.135 372.217 248.446ZM367.695 243.064C367.695 242.039 367.952 241.215 368.483 240.611C369.013 240.007 369.709 239.714 370.533 239.714C371.302 239.714 371.961 240.007 372.492 240.574C373.023 241.142 373.315 241.984 373.334 243.064H367.695ZM386.551 247.018C386.551 244.584 386.661 242.991 386.862 242.222C387.064 241.453 387.356 240.941 387.723 240.648C388.089 240.355 388.546 240.208 389.059 240.208C389.608 240.208 390.194 240.41 390.835 240.831L392.006 237.535C391.201 237.06 390.377 236.822 389.517 236.822C388.913 236.822 388.363 236.968 387.887 237.279C387.411 237.59 386.862 238.213 386.258 239.183V237.151H382.743V251.43H386.533V247.018H386.551ZM403.759 248.446C403.356 248.776 402.862 248.922 402.258 248.922C401.379 248.922 400.665 248.611 400.079 247.989C399.494 247.366 399.201 246.487 399.164 245.371H408.629C408.684 242.478 408.098 240.318 406.871 238.927C405.645 237.517 403.96 236.822 401.837 236.822C399.951 236.822 398.377 237.499 397.15 238.835C395.906 240.172 395.301 242.021 395.301 244.4C395.301 246.378 395.777 248.025 396.711 249.325C397.901 250.954 399.75 251.76 402.221 251.76C403.796 251.76 405.095 251.394 406.139 250.68C407.182 249.966 407.951 248.904 408.427 247.531L404.656 246.908C404.473 247.604 404.162 248.135 403.759 248.446ZM399.237 243.064C399.237 242.039 399.494 241.215 400.025 240.611C400.555 240.007 401.251 239.714 402.075 239.714C402.844 239.714 403.503 240.007 404.034 240.574C404.565 241.142 404.857 241.984 404.876 243.064H399.237ZM427.576 231.714H423.805V238.817C422.633 237.481 421.26 236.822 419.667 236.822C417.928 236.822 416.482 237.444 415.347 238.707C414.212 239.97 413.645 241.801 413.645 244.236C413.645 246.597 414.23 248.446 415.402 249.764C416.574 251.082 417.983 251.741 419.612 251.741C420.418 251.741 421.223 251.54 422.011 251.137C422.798 250.735 423.493 250.13 424.079 249.325V251.43H427.594V231.714H427.576ZM418.404 240.794C419.008 240.08 419.759 239.732 420.656 239.732C421.571 239.732 422.34 240.098 422.926 240.812C423.512 241.526 423.805 242.716 423.805 244.364C423.805 245.828 423.493 246.945 422.889 247.677C422.285 248.41 421.535 248.794 420.674 248.794C419.576 248.794 418.734 248.3 418.111 247.311C417.69 246.634 417.489 245.535 417.489 243.998C417.489 242.57 417.8 241.508 418.404 240.794ZM447.823 251.43V249.343C448.39 250.149 449.086 250.753 449.873 251.156C450.66 251.558 451.466 251.76 452.289 251.76C453.955 251.76 455.365 251.101 456.518 249.783C457.672 248.465 458.257 246.579 458.257 244.144C458.257 241.783 457.69 239.97 456.555 238.707C455.42 237.444 453.974 236.822 452.235 236.822C450.642 236.822 449.251 237.481 448.097 238.817V231.714H444.308V251.43H447.823ZM448.958 240.776C449.562 240.08 450.312 239.714 451.209 239.714C452.125 239.714 452.894 240.08 453.479 240.794C454.065 241.508 454.358 242.698 454.358 244.327C454.358 245.865 454.065 246.982 453.479 247.696C452.894 248.41 452.18 248.757 451.356 248.757C450.276 248.757 449.397 248.263 448.756 247.256C448.299 246.542 448.061 245.444 448.061 243.979C448.061 242.551 448.354 241.49 448.958 240.776ZM467.703 251.467C467.484 252.272 467.154 252.913 466.733 253.444C466.312 253.957 465.653 254.213 464.774 254.213C464.298 254.213 463.768 254.158 463.182 254.048L463.511 257.014C464.207 257.16 464.921 257.233 465.653 257.233C466.367 257.233 467.008 257.16 467.575 257.014C468.143 256.867 468.619 256.648 469.022 256.373C469.406 256.098 469.754 255.751 470.065 255.311C470.358 254.872 470.687 254.231 471.017 253.407L471.914 250.918L476.948 237.169H473.031L469.699 247.311L466.276 237.169H462.248L467.703 251.467Z" fill="black"/>
</g>
</g>
<defs>
<filter id="filter0_d_3669_211182" x="0" y="0" width="908" height="472" filterUnits="userSpaceOnUse" color-interpolation-filters="sRGB">
<feFlood flood-opacity="0" result="BackgroundImageFix"/>
<feColorMatrix in="SourceAlpha" type="matrix" values="0 0 0 0 0 0 0 0 0 0 0 0 0 0 0 0 0 0 127 0" result="hardAlpha"/>
<feOffset dx="8" dy="5"/>
<feGaussianBlur stdDeviation="50"/>
<feComposite in2="hardAlpha" operator="out"/>
<feColorMatrix type="matrix" values="0 0 0 0 0 0 0 0 0 0 0 0 0 0 0 0 0 0 0.08 0"/>
<feBlend mode="normal" in2="BackgroundImageFix" result="effect1_dropShadow_3669_211182"/>
<feBlend mode="normal" in="SourceGraphic" in2="effect1_dropShadow_3669_211182" result="shape"/>
</filter>
<clipPath id="clip0_3669_211182">
<rect width="292.262" height="64" fill="white" transform="translate(300 199)"/>
</clipPath>
</defs>
</svg>
