<svg width="160" height="160" viewBox="0 0 160 160" fill="none" xmlns="http://www.w3.org/2000/svg">
<path d="M134.169 0H25.6614C11.489 0 0 11.489 0 25.6614V134.169C0 148.341 11.489 159.83 25.6614 159.83H134.169C148.341 159.83 159.83 148.341 159.83 134.169V25.6614C159.83 11.489 148.341 0 134.169 0Z" fill="url(#paint0_linear_84_13726)"/>
<path d="M157.977 134.152V25.6596C157.977 12.5108 147.317 1.85156 134.169 1.85156L25.6764 1.85156C12.5276 1.85156 1.86836 12.5108 1.86836 25.6596V134.152C1.86836 147.301 12.5276 157.96 25.6764 157.96H134.169C147.317 157.96 157.977 147.301 157.977 134.152Z" fill="#F5F4F4"/>
<path d="M42.4766 127.81H43.4259C43.5048 127.788 43.5881 127.788 43.667 127.81C43.7282 127.853 43.7712 127.917 43.7875 127.991L44.8122 131.592C44.8461 131.69 44.8713 131.791 44.8875 131.893C44.8875 131.984 44.8875 132.104 44.8875 132.21C44.8789 132.105 44.8789 131.999 44.8875 131.893C44.9086 131.79 44.9389 131.69 44.9779 131.592L46.1532 127.991C46.183 127.92 46.2295 127.858 46.2889 127.81C46.367 127.783 46.4518 127.783 46.53 127.81H46.8615C46.9403 127.788 47.0237 127.788 47.1026 127.81C47.1638 127.853 47.2068 127.917 47.2231 127.991L48.3984 131.592C48.4664 131.789 48.5218 131.99 48.5642 132.195C48.5642 132.074 48.5642 131.969 48.5642 131.878C48.5642 131.788 48.5642 131.682 48.5642 131.592L49.5888 127.991C49.6115 127.916 49.6595 127.852 49.7245 127.81C49.8031 127.786 49.8869 127.786 49.9655 127.81H50.8395L48.971 133.837H47.9614L46.6354 129.724V129.558V129.362C46.6269 129.427 46.6269 129.493 46.6354 129.558V129.724L45.2944 133.837H44.2848L42.4766 127.81Z" fill="black"/>
<path d="M56.3058 133.838H55.8387C55.7647 133.858 55.6866 133.858 55.6126 133.838C55.5789 133.818 55.5496 133.792 55.5262 133.761C55.5029 133.73 55.4862 133.695 55.477 133.657L55.3866 133.356C55.2887 133.45 55.1828 133.536 55.0702 133.612L54.7538 133.808L54.3921 133.913C54.257 133.93 54.1204 133.93 53.9853 133.913C53.8153 133.936 53.6429 133.936 53.4729 133.913C53.3298 133.862 53.1971 133.785 53.0812 133.687C52.9676 133.589 52.8796 133.465 52.825 133.325C52.7621 133.162 52.7314 132.988 52.7346 132.813C52.737 132.648 52.7839 132.487 52.8702 132.346C52.9696 132.165 53.1152 132.015 53.2921 131.909C53.5372 131.767 53.8009 131.661 54.0757 131.593C54.4768 131.508 54.8862 131.467 55.2962 131.472V131.216C55.3147 130.99 55.2504 130.765 55.1154 130.583C55.048 130.512 54.9659 130.456 54.8749 130.42C54.7838 130.383 54.6859 130.367 54.588 130.372C54.4485 130.347 54.3056 130.347 54.1661 130.372C54.064 130.402 53.9674 130.447 53.8798 130.508L53.6538 130.628C53.5798 130.649 53.5017 130.649 53.4277 130.628C53.3687 130.646 53.3059 130.646 53.2469 130.628L53.1264 130.493L52.9305 130.161C53.4179 129.712 54.0607 129.468 54.7236 129.483C54.9501 129.482 55.1748 129.523 55.3866 129.604C55.5741 129.684 55.7433 129.802 55.8839 129.95C56.0245 130.102 56.1322 130.282 56.2003 130.478C56.2683 130.692 56.3038 130.916 56.3058 131.141V133.838ZM54.3017 133.205H54.588L54.8442 133.114L55.0702 132.964C55.1527 132.907 55.2286 132.842 55.2962 132.768V132.06C55.0458 132.033 54.7932 132.033 54.5428 132.06C54.3762 132.081 54.2137 132.126 54.0606 132.195C53.9576 132.241 53.869 132.314 53.8044 132.406C53.7458 132.479 53.7139 132.569 53.714 132.662C53.7074 132.736 53.719 132.811 53.748 132.879C53.7769 132.947 53.8221 133.008 53.8798 133.054C54.0004 133.149 54.1485 133.202 54.3017 133.205Z" fill="black"/>
<path d="M62.6211 129.557V135.238H61.5964V133.294C61.5083 133.387 61.4125 133.473 61.3101 133.55C61.2188 133.625 61.1173 133.685 61.0088 133.731C60.8992 133.787 60.7827 133.827 60.6622 133.852C60.5321 133.867 60.4006 133.867 60.2704 133.852C60.0471 133.855 59.8257 133.809 59.6225 133.716C59.4279 133.613 59.2582 133.469 59.1252 133.294C58.9762 133.084 58.8641 132.849 58.7937 132.601C58.7172 132.296 58.6817 131.981 58.6883 131.667C58.6882 131.366 58.7287 131.067 58.8088 130.778C58.8914 130.521 59.019 130.281 59.1855 130.069C59.3474 129.881 59.5412 129.723 59.7581 129.602C59.9988 129.491 60.2613 129.434 60.5266 129.437H60.8882L61.1896 129.542L61.4458 129.708C61.5281 129.77 61.6039 129.841 61.6718 129.919V129.678C61.6832 129.618 61.7152 129.565 61.7622 129.527C61.8164 129.512 61.8738 129.512 61.9279 129.527L62.6211 129.557ZM60.617 133.083C60.8068 133.088 60.9944 133.041 61.1595 132.947C61.3259 132.848 61.4737 132.721 61.5964 132.571V130.657C61.4924 130.526 61.3579 130.423 61.2047 130.356C61.0669 130.296 60.918 130.265 60.7677 130.265C60.6219 130.262 60.4772 130.293 60.3458 130.356C60.2173 130.415 60.1039 130.503 60.0143 130.612C59.9246 130.751 59.8584 130.904 59.8184 131.064C59.7674 131.276 59.7421 131.494 59.743 131.712C59.7237 131.922 59.7237 132.134 59.743 132.345C59.7761 132.496 59.8374 132.639 59.9239 132.767C59.9866 132.874 60.0815 132.958 60.1951 133.008C60.3277 133.066 60.4724 133.092 60.617 133.083Z" fill="black"/>
<path d="M66.8116 133.911C66.6542 133.922 66.4962 133.9 66.3482 133.845C66.2001 133.791 66.0653 133.706 65.9527 133.595C65.7443 133.353 65.6364 133.04 65.6513 132.721V130.416H65.2143C65.1706 130.432 65.1225 130.432 65.0787 130.416C65.0655 130.39 65.0586 130.362 65.0586 130.333C65.0586 130.304 65.0655 130.275 65.0787 130.25V129.843L65.7568 129.738L65.9828 128.562C65.983 128.537 65.9901 128.513 66.0034 128.491C66.0167 128.47 66.0357 128.453 66.0581 128.442C66.1069 128.424 66.1601 128.424 66.2088 128.442H66.7362V129.783H67.8663V130.416H66.7362V132.721C66.7314 132.778 66.7382 132.836 66.7564 132.89C66.7745 132.945 66.8035 132.995 66.8417 133.037C66.8752 133.075 66.9173 133.105 66.9645 133.123C67.0117 133.142 67.0626 133.148 67.1129 133.143H67.2636H67.3842H67.4595H67.5349L67.8513 133.64C67.704 133.773 67.529 133.871 67.339 133.927C67.1632 133.944 66.986 133.939 66.8116 133.911Z" fill="black"/>
<path d="M78.9236 133.836H78.0496C77.9637 133.834 77.8801 133.808 77.8085 133.761C77.7471 133.714 77.7001 133.652 77.6729 133.58L77.2359 132.359H74.7346L74.2825 133.58C74.2578 133.653 74.2102 133.716 74.1469 133.761C74.0776 133.813 73.9924 133.839 73.9058 133.836H73.0469L75.4126 127.809H76.5578L78.9236 133.836ZM75.0208 131.561H76.9345L76.2112 129.557L76.0907 129.24C76.0907 129.12 76.0154 128.984 75.9852 128.848C75.9852 128.984 75.8948 129.12 75.8647 129.24C75.8346 129.361 75.7893 129.481 75.7592 129.572L75.0208 131.561Z" fill="black"/>
<path d="M82.2434 127.644V133.837H81.2188V127.644H82.2434Z" fill="black"/>
<path d="M91.6471 128.908C91.6241 128.958 91.5875 129 91.5416 129.029C91.4925 129.044 91.44 129.044 91.3909 129.029C91.3319 129.047 91.2691 129.047 91.2101 129.029L90.9539 128.878C90.854 128.821 90.7478 128.776 90.6375 128.743C90.4878 128.718 90.3352 128.718 90.1855 128.743C90.0505 128.724 89.9136 128.724 89.7786 128.743L89.4773 128.893C89.4039 128.96 89.3471 129.042 89.3115 129.134C89.2886 129.239 89.2886 129.347 89.3115 129.451C89.3071 129.514 89.3156 129.577 89.3363 129.636C89.357 129.696 89.3896 129.751 89.4321 129.797C89.5176 129.901 89.6259 129.984 89.7485 130.038C89.8847 130.119 90.0319 130.18 90.1855 130.219L90.6978 130.385L91.2101 130.596C91.375 130.673 91.5274 130.775 91.6621 130.897C91.7877 131.024 91.8897 131.172 91.9635 131.334C92.0541 131.538 92.0954 131.76 92.0841 131.982C92.0857 132.245 92.0397 132.505 91.9484 132.751C91.856 132.99 91.7123 133.205 91.5275 133.382C91.3426 133.559 91.1211 133.693 90.8786 133.775C90.5963 133.89 90.294 133.946 89.9896 133.941C89.804 133.956 89.6176 133.956 89.4321 133.941C89.2467 133.902 89.0652 133.846 88.8896 133.775C88.7197 133.68 88.5627 133.564 88.4225 133.429C88.2775 133.33 88.1413 133.219 88.0156 133.097L88.3471 132.555L88.4526 132.464C88.5017 132.449 88.5542 132.449 88.6033 132.464C88.6815 132.471 88.7556 132.503 88.8142 132.555L89.1005 132.736C89.2248 132.813 89.356 132.878 89.4923 132.932C89.666 132.995 89.8499 133.025 90.0348 133.022C90.3 133.037 90.5618 132.957 90.7731 132.796C90.8632 132.712 90.9331 132.609 90.9774 132.494C91.0218 132.379 91.0395 132.256 91.0293 132.133C91.0352 132.065 91.0275 131.997 91.0068 131.933C90.9861 131.868 90.9528 131.808 90.9087 131.756C90.8304 131.648 90.727 131.56 90.6074 131.5C90.4616 131.428 90.3105 131.368 90.1553 131.319L89.643 131.169L89.1307 130.973C88.9704 130.895 88.823 130.794 88.6937 130.671C88.5597 130.537 88.4524 130.378 88.3773 130.204C88.2942 129.983 88.2534 129.748 88.2567 129.511C88.2566 129.288 88.3028 129.067 88.3923 128.863C88.4803 128.654 88.6083 128.465 88.769 128.306C88.9488 128.138 89.1583 128.005 89.3869 127.914C89.6581 127.82 89.9437 127.774 90.2307 127.778C90.5648 127.769 90.8975 127.826 91.2101 127.944C91.4959 128.045 91.7576 128.204 91.9786 128.411L91.6471 128.908Z" fill="black"/>
<path d="M97.8404 133.838H97.4637C97.3844 133.856 97.3019 133.856 97.2226 133.838C97.1641 133.792 97.1218 133.728 97.1021 133.657L97.0116 133.355C96.9137 133.45 96.8078 133.535 96.6952 133.612L96.3637 133.807L96.0171 133.913C95.877 133.929 95.7354 133.929 95.5952 133.913C95.4303 133.937 95.2628 133.937 95.0979 133.913C94.9533 133.865 94.82 133.788 94.7062 133.687C94.5926 133.589 94.5046 133.465 94.45 133.325C94.3871 133.162 94.3564 132.988 94.3596 132.813C94.3637 132.65 94.4049 132.49 94.4801 132.346C94.5837 132.168 94.7284 132.019 94.902 131.909C95.1538 131.77 95.4221 131.664 95.7007 131.592C96.1016 131.506 96.5111 131.465 96.9212 131.472V131.216C96.9397 130.99 96.8754 130.765 96.7404 130.583C96.673 130.512 96.5909 130.456 96.4998 130.419C96.4088 130.383 96.311 130.367 96.213 130.372C96.0736 130.345 95.9305 130.345 95.7911 130.372C95.688 130.399 95.5908 130.445 95.5048 130.508L95.2788 130.628C95.2048 130.649 95.1267 130.649 95.0527 130.628C94.9937 130.646 94.9309 130.646 94.8719 130.628C94.8235 130.591 94.7826 130.545 94.7514 130.492L94.5555 130.161C95.0383 129.714 95.6755 129.471 96.3336 129.483C96.5651 129.481 96.795 129.522 97.0116 129.603C97.1992 129.684 97.3683 129.802 97.5089 129.95C97.6492 130.1 97.7525 130.28 97.8103 130.477C97.8855 130.69 97.9212 130.915 97.9157 131.14L97.8404 133.838ZM95.8514 133.205H96.1377L96.3938 133.114L96.6199 132.964C96.7024 132.907 96.7783 132.841 96.8459 132.768V132.06C96.5954 132.033 96.3429 132.033 96.0925 132.06C95.9253 132.078 95.7623 132.123 95.6103 132.195C95.5032 132.241 95.4098 132.314 95.339 132.406C95.3173 132.49 95.3173 132.578 95.339 132.662C95.3324 132.736 95.3441 132.811 95.373 132.879C95.4019 132.947 95.4472 133.007 95.5048 133.054C95.6046 133.135 95.7243 133.187 95.8514 133.205Z" fill="black"/>
<path d="M101.618 127.644V133.837H100.594V127.644H101.618Z" fill="black"/>
<path d="M107.799 133.838H107.331C107.257 133.855 107.18 133.855 107.105 133.838C107.074 133.817 107.047 133.791 107.026 133.76C107.005 133.729 106.991 133.694 106.985 133.657L106.894 133.355C106.797 133.45 106.691 133.535 106.578 133.612L106.246 133.807L105.9 133.913C105.76 133.929 105.618 133.929 105.478 133.913C105.313 133.937 105.146 133.937 104.981 133.913C104.836 133.865 104.703 133.788 104.589 133.687C104.471 133.593 104.382 133.468 104.333 133.325C104.27 133.162 104.239 132.988 104.242 132.813C104.24 132.649 104.281 132.488 104.363 132.346C104.467 132.168 104.611 132.019 104.785 131.909C105.031 131.77 105.295 131.663 105.568 131.592C105.97 131.507 106.379 131.467 106.789 131.472V131.216C106.807 130.99 106.743 130.765 106.608 130.583C106.541 130.511 106.459 130.455 106.368 130.418C106.277 130.382 106.179 130.366 106.081 130.372C105.946 130.345 105.808 130.345 105.674 130.372C105.57 130.395 105.472 130.442 105.388 130.508L105.147 130.628C105.073 130.652 104.994 130.652 104.921 130.628C104.861 130.642 104.799 130.642 104.74 130.628L104.619 130.492L104.438 130.161C104.921 129.714 105.558 129.471 106.216 129.483C106.443 129.481 106.668 129.522 106.879 129.603C107.067 129.684 107.236 129.802 107.377 129.95C107.517 130.102 107.625 130.282 107.693 130.477C107.768 130.69 107.804 130.915 107.799 131.14V133.838ZM105.794 133.205H106.096L106.337 133.114L106.578 132.964C106.656 132.907 106.726 132.841 106.789 132.768V132.06C106.544 132.033 106.296 132.033 106.051 132.06C105.879 132.079 105.711 132.124 105.553 132.195C105.45 132.241 105.362 132.314 105.297 132.406C105.25 132.483 105.224 132.572 105.222 132.662C105.212 132.736 105.223 132.812 105.252 132.881C105.281 132.949 105.328 133.009 105.388 133.054C105.504 133.147 105.646 133.199 105.794 133.205Z" fill="black"/>
<path d="M113.822 133.838H113.37C113.291 133.856 113.208 133.856 113.129 133.838C113.07 133.792 113.028 133.728 113.008 133.657L112.918 133.355C112.82 133.45 112.714 133.535 112.601 133.612L112.27 133.807L111.923 133.913C111.783 133.929 111.642 133.929 111.501 133.913C111.337 133.937 111.169 133.937 111.004 133.913C110.86 133.865 110.726 133.788 110.612 133.687C110.499 133.589 110.411 133.465 110.356 133.325C110.293 133.162 110.263 132.988 110.266 132.813C110.27 132.65 110.311 132.49 110.386 132.346C110.49 132.168 110.635 132.019 110.808 131.909C111.059 131.767 111.327 131.661 111.607 131.592C112.008 131.506 112.417 131.465 112.827 131.472V131.216C112.846 130.99 112.782 130.765 112.647 130.583C112.579 130.512 112.497 130.456 112.406 130.419C112.315 130.383 112.217 130.367 112.119 130.372C111.98 130.345 111.837 130.345 111.697 130.372C111.594 130.399 111.497 130.445 111.411 130.508L111.185 130.628C111.106 130.651 111.023 130.651 110.944 130.628C110.89 130.644 110.832 130.644 110.778 130.628C110.73 130.591 110.689 130.545 110.658 130.492L110.462 130.161C110.945 129.714 111.582 129.471 112.24 129.483C112.471 129.481 112.701 129.522 112.918 129.603C113.105 129.684 113.275 129.802 113.415 129.95C113.555 130.1 113.659 130.28 113.717 130.477C113.792 130.69 113.827 130.915 113.822 131.14V133.838ZM111.833 133.205H112.119L112.375 133.114L112.601 132.964C112.684 132.907 112.76 132.841 112.827 132.768V132.06C112.577 132.033 112.324 132.033 112.074 132.06C111.903 132.081 111.735 132.126 111.577 132.195C111.477 132.245 111.389 132.317 111.321 132.406C111.273 132.483 111.247 132.572 111.245 132.662C111.239 132.736 111.25 132.811 111.279 132.879C111.308 132.947 111.353 133.007 111.411 133.054C111.532 133.149 111.68 133.202 111.833 133.205Z" fill="black"/>
<path d="M116.508 133.837V127.644H117.532V130.024C117.699 129.872 117.886 129.745 118.09 129.648C118.31 129.541 118.553 129.489 118.798 129.497C119.01 129.496 119.22 129.537 119.416 129.618C119.593 129.687 119.749 129.801 119.868 129.949C119.994 130.099 120.086 130.273 120.139 130.461C120.201 130.672 120.231 130.89 120.23 131.109V133.837H119.205V131.109C119.216 130.894 119.152 130.68 119.024 130.507C118.954 130.434 118.87 130.378 118.776 130.341C118.683 130.305 118.582 130.289 118.482 130.296C118.309 130.296 118.138 130.337 117.984 130.416C117.818 130.503 117.665 130.614 117.532 130.748V133.837H116.508Z" fill="black"/>
<path d="M133.37 78.0526C133.377 69.2457 131.207 60.5736 127.055 52.8071C122.902 45.0406 116.896 38.4201 109.568 33.5341C102.241 28.6481 93.8204 25.6479 85.0544 24.8001C76.2884 23.9523 67.4488 25.2831 59.321 28.6744C51.1932 32.0657 44.0291 37.4124 38.4653 44.2392C32.9015 51.066 29.1104 59.1616 27.4289 67.8065C25.7473 76.4514 26.2275 85.3778 28.8266 93.7924C31.4257 102.207 36.0634 109.849 42.3274 116.04C44.769 118.461 47.4384 120.641 50.2985 122.549H109.517C112.372 120.641 115.037 118.461 117.473 116.04C122.511 111.08 126.512 105.167 129.241 98.6446C131.971 92.1227 133.374 85.1226 133.37 78.0526Z" fill="url(#paint1_linear_84_13726)"/>
<path d="M94.8531 90.4393C91.9205 88.1164 89.1747 85.567 86.6409 82.8147C83.2354 79.138 80.734 75.5819 79.9203 72.8545C79.1067 75.5819 76.5903 79.138 73.1848 82.8147C70.6526 85.5632 67.912 88.1123 64.9876 90.4393C62.1367 92.4165 59.5973 94.8086 57.4534 97.5365C54.8888 101.266 53.6271 105.738 53.8642 110.258C54.1012 114.778 55.8237 119.094 58.7644 122.535H100.956C103.896 119.094 105.619 114.778 105.856 110.258C106.093 105.738 104.831 101.266 102.267 97.5365C100.16 94.8168 97.662 92.425 94.8531 90.4393Z" fill="white"/>
<path d="M120.924 68.1683H106.082C106.053 68.1687 106.024 68.1778 106 68.1944C105.975 68.211 105.956 68.2344 105.945 68.2616C105.934 68.2889 105.931 68.3189 105.936 68.3478C105.942 68.3768 105.956 68.4034 105.977 68.4245L108.659 71.1067C109.205 71.6491 109.514 72.3861 109.518 73.156V77.9929H109.126C108.976 77.9907 108.828 78.03 108.699 78.1064C108.57 78.1827 108.465 78.2933 108.395 78.4258C108.325 78.5583 108.293 78.7076 108.302 78.8572C108.311 79.0068 108.362 79.151 108.448 79.2737L109.518 81.534V124.102V122.595C112.369 120.959 115.045 119.035 117.504 116.854V80.8408L118.559 79.1833C118.639 79.0594 118.685 78.9162 118.692 78.7685C118.699 78.6208 118.666 78.474 118.597 78.3433C118.528 78.2126 118.425 78.1029 118.299 78.0253C118.173 77.9478 118.028 77.9054 117.881 77.9025H117.474V73.156C117.474 72.7804 117.549 72.4086 117.694 72.0621C117.839 71.7156 118.051 71.4011 118.318 71.1368L121 68.4546C121.031 68.4395 121.057 68.4138 121.072 68.382C121.086 68.3502 121.09 68.3142 121.081 68.2803C121.072 68.2464 121.051 68.2166 121.023 68.1962C120.994 68.1758 120.959 68.1659 120.924 68.1683ZM113.014 77.8724H110.648V73.156C110.681 72.8652 110.819 72.5968 111.038 72.4019C111.256 72.207 111.538 72.0993 111.831 72.0993C112.123 72.0993 112.406 72.207 112.624 72.4019C112.842 72.5968 112.981 72.8652 113.014 73.156V77.8724ZM116.344 77.8724H114.038V73.156C114.038 72.8442 114.162 72.5453 114.382 72.3249C114.603 72.1044 114.902 71.9806 115.214 71.9806C115.525 71.9806 115.824 72.1044 116.045 72.3249C116.265 72.5453 116.389 72.8442 116.389 73.156L116.344 77.8724Z" fill="white"/>
<path d="M113.496 55.2412C109.216 61.4795 104.651 60.5453 105.63 67.2959C105.655 67.4303 105.725 67.552 105.83 67.64C105.934 67.728 106.066 67.7768 106.203 67.7781H120.804C120.94 67.7793 121.071 67.731 121.174 67.6423C121.276 67.5535 121.343 67.4304 121.361 67.2959C122.356 60.5453 117.79 61.4795 113.496 55.2412Z" fill="white"/>
<path d="M53.7643 68.1699H38.922C38.8925 68.1703 38.8638 68.1794 38.8394 68.196C38.815 68.2126 38.796 68.236 38.7848 68.2632C38.7735 68.2905 38.7706 68.3205 38.7762 68.3494C38.7819 68.3784 38.7959 68.405 38.8165 68.4261L41.4987 71.1082C41.7655 71.3725 41.9775 71.687 42.1223 72.0335C42.2671 72.3801 42.342 72.7518 42.3425 73.1274V77.9644H41.9357C41.7878 77.9673 41.6435 78.0097 41.5176 78.0872C41.3917 78.1647 41.2888 78.2745 41.2197 78.4052C41.1505 78.5359 41.1175 78.6826 41.1242 78.8303C41.1309 78.978 41.1769 79.1213 41.2576 79.2452L42.3425 80.8424V116.69C44.7979 118.9 47.4683 120.859 50.3137 122.537V123.2V80.8424L51.3835 79.2452C51.4696 79.1224 51.5201 78.9783 51.5294 78.8287C51.5388 78.679 51.5066 78.5297 51.4365 78.3972C51.3663 78.2647 51.2609 78.1542 51.132 78.0778C51.003 78.0014 50.8554 77.9622 50.7055 77.9644H50.3137V73.1575C50.3173 72.4024 50.6145 71.6783 51.1424 71.1384L53.8246 68.4562C53.8549 68.4416 53.8795 68.4172 53.8944 68.387C53.9092 68.3567 53.9135 68.3224 53.9066 68.2895C53.8996 68.2565 53.8819 68.2268 53.8561 68.2052C53.8303 68.1835 53.798 68.1711 53.7643 68.1699ZM45.8535 77.8739H43.5028V73.1575C43.5028 72.8458 43.6266 72.5469 43.847 72.3265C44.0675 72.106 44.3664 71.9822 44.6781 71.9822C44.9898 71.9822 45.2888 72.106 45.5092 72.3265C45.7296 72.5469 45.8535 72.8458 45.8535 73.1575V77.8739ZM49.1986 77.8739H46.8329V73.1575C46.8329 72.8458 46.9567 72.5469 47.1772 72.3265C47.3976 72.106 47.6965 71.9822 48.0082 71.9822C48.3199 71.9822 48.6189 72.106 48.8393 72.3265C49.0597 72.5469 49.1836 72.8458 49.1836 73.1575L49.1986 77.8739Z" fill="white"/>
<path d="M53.6291 67.7468C53.7657 67.7456 53.8976 67.6967 54.0021 67.6087C54.1066 67.5207 54.1772 67.399 54.2017 67.2646C55.1812 60.5442 50.6155 61.4784 46.3361 55.21C42.0416 61.4483 37.4909 60.514 38.4704 67.2646C38.4916 67.3978 38.5592 67.5192 38.6612 67.6074C38.7632 67.6956 38.8931 67.745 39.0279 67.7468H53.6291Z" fill="white"/>
<path d="M95.0204 117.172H94.5081C93.8495 117.299 93.167 117.185 92.5857 116.85C92.0045 116.515 91.5635 115.982 91.3437 115.348C91.0497 114.432 91.0497 113.447 91.3437 112.53C91.5698 111.792 91.9314 111.506 92.5341 111.521C93.1369 111.536 93.378 112.048 93.4684 112.606C93.5588 113.163 93.6793 113.389 94.1314 113.389C94.5834 113.389 94.9149 113.269 94.9752 113.073C95.035 112.896 95.0579 112.708 95.0423 112.521C95.0268 112.335 94.9732 112.153 94.8848 111.988C94.6269 111.558 94.2422 111.219 93.7835 111.016C93.3248 110.814 92.8146 110.758 92.3232 110.858C91.7762 110.923 91.2618 111.152 90.8476 111.515C90.4333 111.878 90.1388 112.358 90.0026 112.892C89.3095 114.881 89.9122 116.539 91.9314 118.091C90.8068 118.467 89.6109 118.581 88.4356 118.422C88.2095 118.422 87.9534 117.97 87.878 117.684C87.7871 117.258 87.7566 116.822 87.7876 116.388C87.7876 111.129 87.7876 105.84 87.7876 100.596C87.7876 100.385 87.7876 100.159 87.7876 99.7826C86.7629 100.22 85.8438 100.581 84.9246 100.958V101.214C85.0997 101.237 85.2769 101.237 85.452 101.214C85.889 101.094 86.0849 101.32 86.2054 101.681C86.2619 101.892 86.2873 102.111 86.2807 102.329C86.2807 106.383 86.2807 110.421 86.2807 114.474C86.2809 115.228 86.2052 115.981 86.0547 116.719C85.9893 117.092 85.8306 117.443 85.5935 117.738C85.3564 118.033 85.0486 118.263 84.6986 118.407C84.1411 118.633 83.7945 118.407 83.6589 117.895C83.5783 117.524 83.5429 117.144 83.5534 116.765V96.558L80.6904 97.7484V97.9292C80.8109 97.9292 80.9616 98.0347 81.052 98.0046C81.6246 97.8238 81.7753 98.0046 81.7904 98.6224C81.7904 100.34 81.926 102.058 81.9561 103.791C82.0164 107.628 82.0566 111.481 82.0767 115.348C82.154 116.292 81.8563 117.229 81.2479 117.955C80.9013 118.332 80.4795 118.724 79.9069 118.513C79.3343 118.302 79.3794 117.729 79.3644 117.232V93.7402L76.5014 94.9156V95.0813C76.6219 95.0813 76.7575 95.2019 76.863 95.1717C77.5411 94.9909 77.6164 95.3827 77.6164 95.9101C77.6164 97.4169 77.7521 98.9238 77.7671 100.431C77.8274 105.192 77.8726 109.954 77.9027 114.715C77.9031 115.256 77.8578 115.795 77.7671 116.328C77.7448 116.725 77.628 117.112 77.4262 117.455C77.2243 117.799 76.9435 118.089 76.6069 118.302C75.9137 118.693 75.4767 118.498 75.2658 117.744C75.2012 117.493 75.1658 117.235 75.1603 116.976C75.1603 115.469 75.1603 114.113 75.2507 112.696C75.2507 112.139 75.1603 112.018 74.648 112.214L72.8398 112.967C72.6891 112.967 72.5384 113.148 72.3877 113.239L72.4631 113.42C72.5932 113.435 72.7247 113.435 72.8549 113.42C73.4124 113.239 73.6384 113.57 73.7288 114.022C73.858 114.762 73.7652 115.522 73.4621 116.209C73.1591 116.896 72.6593 117.477 72.0261 117.88C71.394 118.268 70.6547 118.445 69.9151 118.386C69.1756 118.326 68.4742 118.033 67.9125 117.548C67.1393 116.89 66.5652 116.029 66.2549 115.062C65.7517 113.58 65.6081 112 65.8361 110.451C66.064 108.903 66.6569 107.431 67.5659 106.157C68.9095 104.284 70.4784 102.583 72.2371 101.094C72.9264 100.434 73.5707 99.7295 74.1658 98.984C74.4224 98.6001 74.6395 98.1912 74.8137 97.7635C73.9096 98.5621 72.9905 99.4059 72.0412 100.22C71.0919 101.033 69.796 102.058 68.7713 103.068C66.2874 105.35 64.7767 108.501 64.5522 111.867C64.4435 112.947 64.5543 114.038 64.878 115.074C65.2017 116.109 65.7316 117.069 66.4357 117.895C67.0282 118.617 67.838 119.129 68.7448 119.355C69.6515 119.58 70.6068 119.507 71.4686 119.145C72.3124 118.799 73.0809 118.256 73.9247 117.804C74.0505 118.203 74.3092 118.546 74.6575 118.776C75.0058 119.006 75.4227 119.11 75.8384 119.07C76.7877 119.07 77.3452 118.362 78.0384 117.699C78.1515 118.13 78.4165 118.507 78.7846 118.758C79.1527 119.01 79.5993 119.121 80.0425 119.07C80.8902 118.916 81.6458 118.441 82.152 117.744C83.237 119.507 84.0958 119.507 86.341 117.744C86.4901 118.115 86.7458 118.433 87.0757 118.658C87.4056 118.884 87.795 119.006 88.1945 119.01C90.1806 119.149 92.1761 118.96 94.1012 118.452C95.2163 118.362 95.2615 118.256 95.0204 117.172Z" fill="black"/>
<path d="M76.9704 119.763C76.8757 119.756 76.7806 119.77 76.6917 119.803C76.6027 119.836 76.5219 119.888 76.4548 119.955C76.3876 120.022 76.3357 120.103 76.3024 120.192C76.2692 120.281 76.2555 120.376 76.2622 120.471C76.2509 120.57 76.2615 120.67 76.2934 120.765C76.3253 120.859 76.3777 120.946 76.4467 121.018C76.5158 121.09 76.5999 121.145 76.693 121.181C76.7862 121.217 76.886 121.232 76.9855 121.224C77.0806 121.227 77.1751 121.209 77.2627 121.172C77.3503 121.135 77.4289 121.08 77.4932 121.01C77.5575 120.94 77.606 120.857 77.6354 120.767C77.6648 120.676 77.6744 120.58 77.6636 120.486C77.675 120.391 77.6652 120.294 77.6348 120.203C77.6045 120.113 77.5544 120.03 77.4881 119.96C77.4218 119.891 77.3409 119.838 77.2514 119.803C77.1619 119.769 77.066 119.755 76.9704 119.763Z" fill="black"/>
<path d="M81.4138 119.763C81.2666 119.745 81.1173 119.772 80.9855 119.84C80.8537 119.908 80.7455 120.014 80.6749 120.145C80.6043 120.275 80.5746 120.424 80.5898 120.572C80.6049 120.719 80.6642 120.859 80.7598 120.972C80.8554 121.086 80.983 121.167 81.1258 121.207C81.2687 121.247 81.4203 121.243 81.5609 121.196C81.7014 121.148 81.8243 121.059 81.9137 120.941C82.003 120.823 82.0546 120.68 82.0618 120.532C82.077 120.438 82.0716 120.341 82.0461 120.249C82.0207 120.157 81.9756 120.072 81.9141 119.999C81.8526 119.926 81.776 119.867 81.6897 119.826C81.6034 119.786 81.5093 119.764 81.4138 119.763Z" fill="black"/>
<path d="M78.8661 119.762C78.771 119.751 78.6745 119.761 78.5836 119.791C78.4928 119.822 78.4097 119.872 78.3406 119.938C78.2714 120.004 78.2178 120.085 78.1836 120.175C78.1494 120.264 78.1355 120.36 78.1428 120.456C78.1296 120.553 78.1379 120.653 78.167 120.747C78.1961 120.841 78.2453 120.927 78.3113 121C78.3773 121.074 78.4583 121.132 78.549 121.17C78.6396 121.209 78.7376 121.227 78.836 121.224C78.9309 121.229 79.0257 121.213 79.1139 121.178C79.2022 121.143 79.2819 121.089 79.3476 121.021C79.4134 120.952 79.4636 120.87 79.4949 120.78C79.5262 120.691 79.5379 120.595 79.5291 120.501C79.5141 120.064 79.3784 119.778 78.8661 119.762Z" fill="black"/>
<path d="M83.2535 119.763C83.1589 119.751 83.063 119.761 82.9727 119.791C82.8824 119.821 82.8002 119.872 82.7321 119.938C82.664 120.005 82.6118 120.086 82.5795 120.176C82.5471 120.265 82.5354 120.361 82.5452 120.456C82.5318 120.555 82.5404 120.655 82.5703 120.751C82.6003 120.846 82.6509 120.933 82.7185 121.007C82.7862 121.08 82.8692 121.138 82.9616 121.175C83.0541 121.213 83.1538 121.23 83.2535 121.224C83.3491 121.227 83.4441 121.209 83.5324 121.172C83.6207 121.135 83.7001 121.08 83.7656 121.011C83.8311 120.941 83.881 120.858 83.9122 120.768C83.9434 120.677 83.9551 120.581 83.9466 120.486C83.9014 120.049 83.7206 119.778 83.2535 119.763Z" fill="black"/>
<path d="M68.4702 112.621C68.4624 112.764 68.4862 112.907 68.5398 113.04C68.5935 113.173 68.6757 113.292 68.7806 113.39C68.8855 113.488 69.0106 113.561 69.147 113.605C69.2835 113.649 69.4279 113.663 69.5701 113.645C69.7689 113.63 69.9591 113.558 70.1175 113.437C70.2758 113.316 70.3953 113.151 70.4614 112.963C70.5275 112.775 70.5374 112.572 70.4897 112.378C70.4421 112.185 70.339 112.009 70.1932 111.874C70.0473 111.738 69.865 111.647 69.6686 111.613C69.4722 111.58 69.2701 111.604 69.0872 111.683C68.9044 111.762 68.7486 111.893 68.639 112.06C68.5294 112.226 68.4707 112.421 68.4702 112.621Z" fill="black"/>
<defs>
<linearGradient id="paint0_linear_84_13726" x1="0" y1="79.9075" x2="159.83" y2="79.9075" gradientUnits="userSpaceOnUse">
<stop stop-color="#FAFAFA"/>
<stop offset="0.82" stop-color="#E5E6E8"/>
<stop offset="1" stop-color="#DEE0E2"/>
</linearGradient>
<linearGradient id="paint1_linear_84_13726" x1="26.4604" y1="73.5622" x2="133.37" y2="73.5622" gradientUnits="userSpaceOnUse">
<stop stop-color="#9A6126"/>
<stop offset="1" stop-color="#EAA022"/>
</linearGradient>
</defs>
</svg>
